<svg xmlns="http://www.w3.org/2000/svg" viewBox="0 0 512 512">
  <defs>
    <linearGradient id="bg" x1="0" x2="1" y1="0" y2="1">
      <stop offset="0%" stop-color="#101418"/>
      <stop offset="100%" stop-color="#2b6ef2"/>
    </linearGradient>
  </defs>
  <rect width="512" height="512" rx="112" fill="url(#bg)"/>
  <path d="M128 292c0-18 10-34 26-41l36-88c8-21 29-35 52-35h30c23 0 44 14 52 35l36 88c16 7 26 23 26 41v42c0 11-9 20-20 20h-12c-6 0-12-3-15-8l-12-18H190l-12 18c-3 5-9 8-15 8h-15c-11 0-20-9-20-20v-42Z" fill="#ffffff"/>
  <circle cx="192" cy="318" r="28" fill="#101418"/>
  <circle cx="320" cy="318" r="28" fill="#101418"/>
  <path d="M191 187h130c6 0 12 4 14 10l16 40H161l16-40c2-6 8-10 14-10Z" fill="#d9e6ff"/>
  <path d="M204 230h104" stroke="#101418" stroke-width="12" stroke-linecap="round"/>
</svg>
